<?xml version="1.0" encoding="UTF-8" standalone="no"?><svg xmlns="http://www.w3.org/2000/svg" xmlns:xlink="http://www.w3.org/1999/xlink" contentScriptType="application/ecmascript" contentStyleType="text/css" height="673px" preserveAspectRatio="none" style="width:1065px;height:673px;" version="1.1" viewBox="0 0 1065 673" width="1065px" zoomAndPan="magnify"><defs><filter height="300%" id="f1w2ylw5ud8yfx" width="300%" x="-1" y="-1"><feGaussianBlur result="blurOut" stdDeviation="2.0"/><feColorMatrix in="blurOut" result="blurOut2" type="matrix" values="0 0 0 0 0 0 0 0 0 0 0 0 0 0 0 0 0 0 .4 0"/><feOffset dx="4.0" dy="4.0" in="blurOut2" result="blurOut3"/><feBlend in="SourceGraphic" in2="blurOut3" mode="normal"/></filter></defs><g><!--MD5=[4308bd4a7e66e801b25813fb22120741]
cluster avfs--><polygon fill="#FFFFFF" filter="url(#f1w2ylw5ud8yfx)" points="22,24,61,24,68,46.2969,1043,46.2969,1043,661,22,661,22,24" style="stroke: #000000; stroke-width: 1.5;"/><line style="stroke: #000000; stroke-width: 1.5;" x1="22" x2="68" y1="46.2969" y2="46.2969"/><text fill="#000000" font-family="sans-serif" font-size="14" font-weight="bold" lengthAdjust="spacingAndGlyphs" textLength="33" x="26" y="38.9951">avfs</text><!--MD5=[0cb3861098d307694f51fede3d45dd9b]
class avfs.File--><rect fill="#FEFECE" filter="url(#f1w2ylw5ud8yfx)" height="99.2188" id="avfs.File" style="stroke: #A80036; stroke-width: 1.5;" width="285" x="473.5" y="546"/><ellipse cx="601.25" cy="562" fill="#B4A7E5" rx="11" ry="11" style="stroke: #A80036; stroke-width: 1.0;"/><path d="M597.1719,557.7656 L597.1719,555.6094 L604.5625,555.6094 L604.5625,557.7656 L602.0938,557.7656 L602.0938,565.8438 L604.5625,565.8438 L604.5625,568 L597.1719,568 L597.1719,565.8438 L599.6406,565.8438 L599.6406,557.7656 L597.1719,557.7656 Z "/><text fill="#000000" font-family="sans-serif" font-size="12" font-style="italic" lengthAdjust="spacingAndGlyphs" textLength="21" x="621.75" y="566.1543">File</text><line style="stroke: #A80036; stroke-width: 1.5;" x1="474.5" x2="757.5" y1="578" y2="578"/><line style="stroke: #A80036; stroke-width: 1.5;" x1="474.5" x2="757.5" y1="586" y2="586"/><ellipse cx="484.5" cy="597" fill="#84BE84" rx="3" ry="3" style="stroke: #038048; stroke-width: 1.0;"/><text fill="#000000" font-family="sans-serif" font-size="11" lengthAdjust="spacingAndGlyphs" textLength="190" x="493.5" y="600.2104">Read(p: []byte): (n: int, err: error)</text><ellipse cx="484.5" cy="609.8047" fill="#84BE84" rx="3" ry="3" style="stroke: #038048; stroke-width: 1.0;"/><text fill="#000000" font-family="sans-serif" font-size="11" lengthAdjust="spacingAndGlyphs" textLength="259" x="493.5" y="613.0151">Seek(offset: int64, whence: int): (int64, error)</text><ellipse cx="484.5" cy="622.6094" fill="#84BE84" rx="3" ry="3" style="stroke: #038048; stroke-width: 1.0;"/><text fill="#000000" font-family="sans-serif" font-size="11" lengthAdjust="spacingAndGlyphs" textLength="142" x="493.5" y="625.8198">Stat(): (os.FileInfo, error)</text><ellipse cx="484.5" cy="635.4141" fill="#84BE84" rx="3" ry="3" style="stroke: #038048; stroke-width: 1.0;"/><text fill="#000000" font-family="sans-serif" font-size="11" lengthAdjust="spacingAndGlyphs" textLength="190" x="493.5" y="638.6245">Write(p: []byte): (n: int, err: error)</text><!--MD5=[3643fadeb61232dd8450a9a50948a871]
class avfs.VFS--><rect fill="#FEFECE" filter="url(#f1w2ylw5ud8yfx)" height="86.4141" id="avfs.VFS" style="stroke: #A80036; stroke-width: 1.5;" width="420" x="406" y="376.5"/><ellipse cx="605.25" cy="392.5" fill="#B4A7E5" rx="11" ry="11" style="stroke: #A80036; stroke-width: 1.0;"/><path d="M601.1719,388.2656 L601.1719,386.1094 L608.5625,386.1094 L608.5625,388.2656 L606.0938,388.2656 L606.0938,396.3438 L608.5625,396.3438 L608.5625,398.5 L601.1719,398.5 L601.1719,396.3438 L603.6406,396.3438 L603.6406,388.2656 L601.1719,388.2656 Z "/><text fill="#000000" font-family="sans-serif" font-size="12" font-style="italic" lengthAdjust="spacingAndGlyphs" textLength="13" x="625.75" y="396.6543">VFS</text><line style="stroke: #A80036; stroke-width: 1.5;" x1="407" x2="825" y1="408.5" y2="408.5"/><line style="stroke: #A80036; stroke-width: 1.5;" x1="407" x2="825" y1="416.5" y2="416.5"/><ellipse cx="417" cy="427.5" fill="#84BE84" rx="3" ry="3" style="stroke: #038048; stroke-width: 1.0;"/><text fill="#000000" font-family="sans-serif" font-size="11" lengthAdjust="spacingAndGlyphs" textLength="219" x="426" y="430.7104">Create(name: string): (avfs.File, error)</text><ellipse cx="417" cy="440.3047" fill="#84BE84" rx="3" ry="3" style="stroke: #038048; stroke-width: 1.0;"/><text fill="#000000" font-family="sans-serif" font-size="11" lengthAdjust="spacingAndGlyphs" textLength="211" x="426" y="443.5151">Open(name: string): (avfs.File, error)</text><ellipse cx="417" cy="453.1094" fill="#84BE84" rx="3" ry="3" style="stroke: #038048; stroke-width: 1.0;"/><text fill="#000000" font-family="sans-serif" font-size="11" lengthAdjust="spacingAndGlyphs" textLength="394" x="426" y="456.3198">OpenFile(name: string, flag: int, perm: os.FileMode): (avfs.File, error)</text><!--MD5=[18fbfc32954e74be407e87129c798672]
class avfs.GroupMgr--><rect fill="#FEFECE" filter="url(#f1w2ylw5ud8yfx)" height="73.6094" id="avfs.GroupMgr" style="stroke: #A80036; stroke-width: 1.5;" width="338" x="640" y="59"/><ellipse cx="774.25" cy="75" fill="#B4A7E5" rx="11" ry="11" style="stroke: #A80036; stroke-width: 1.0;"/><path d="M770.1719,70.7656 L770.1719,68.6094 L777.5625,68.6094 L777.5625,70.7656 L775.0938,70.7656 L775.0938,78.8438 L777.5625,78.8438 L777.5625,81 L770.1719,81 L770.1719,78.8438 L772.6406,78.8438 L772.6406,70.7656 L770.1719,70.7656 Z "/><text fill="#000000" font-family="sans-serif" font-size="12" font-style="italic" lengthAdjust="spacingAndGlyphs" textLength="61" x="794.75" y="79.1543">GroupMgr</text><line style="stroke: #A80036; stroke-width: 1.5;" x1="641" x2="977" y1="91" y2="91"/><line style="stroke: #A80036; stroke-width: 1.5;" x1="641" x2="977" y1="99" y2="99"/><ellipse cx="651" cy="110" fill="#84BE84" rx="3" ry="3" style="stroke: #038048; stroke-width: 1.0;"/><text fill="#000000" font-family="sans-serif" font-size="11" lengthAdjust="spacingAndGlyphs" textLength="293" x="660" y="113.2104">GroupAdd(name: string): (avfs.GroupReader, error)</text><ellipse cx="651" cy="122.8047" fill="#84BE84" rx="3" ry="3" style="stroke: #038048; stroke-width: 1.0;"/><text fill="#000000" font-family="sans-serif" font-size="11" lengthAdjust="spacingAndGlyphs" textLength="312" x="660" y="126.0151">LookupGroup(name: string): (avfs.GroupReader, error)</text><!--MD5=[5393f2e28439a42447b86b02984a5ebf]
class avfs.GroupReader--><rect fill="#FEFECE" filter="url(#f1w2ylw5ud8yfx)" height="73.6094" id="avfs.GroupReader" style="stroke: #A80036; stroke-width: 1.5;" width="115" x="886.5" y="382.5"/><ellipse cx="901.5" cy="398.5" fill="#B4A7E5" rx="11" ry="11" style="stroke: #A80036; stroke-width: 1.0;"/><path d="M897.4219,394.2656 L897.4219,392.1094 L904.8125,392.1094 L904.8125,394.2656 L902.3438,394.2656 L902.3438,402.3438 L904.8125,402.3438 L904.8125,404.5 L897.4219,404.5 L897.4219,402.3438 L899.8906,402.3438 L899.8906,394.2656 L897.4219,394.2656 Z "/><text fill="#000000" font-family="sans-serif" font-size="12" font-style="italic" lengthAdjust="spacingAndGlyphs" textLength="83" x="915.5" y="402.6543">GroupReader</text><line style="stroke: #A80036; stroke-width: 1.5;" x1="887.5" x2="1000.5" y1="414.5" y2="414.5"/><line style="stroke: #A80036; stroke-width: 1.5;" x1="887.5" x2="1000.5" y1="422.5" y2="422.5"/><ellipse cx="897.5" cy="433.5" fill="#84BE84" rx="3" ry="3" style="stroke: #038048; stroke-width: 1.0;"/><text fill="#000000" font-family="sans-serif" font-size="11" lengthAdjust="spacingAndGlyphs" textLength="49" x="906.5" y="436.7104">Gid(): int</text><ellipse cx="897.5" cy="446.3047" fill="#84BE84" rx="3" ry="3" style="stroke: #038048; stroke-width: 1.0;"/><text fill="#000000" font-family="sans-serif" font-size="11" lengthAdjust="spacingAndGlyphs" textLength="82" x="906.5" y="449.5151">Name(): string</text><!--MD5=[f2803d49582cf68862bdbd9718d935ce]
class avfs.IdentityMgr--><rect fill="#FEFECE" filter="url(#f1w2ylw5ud8yfx)" height="99.2188" id="avfs.IdentityMgr" style="stroke: #A80036; stroke-width: 1.5;" width="418" x="482" y="194"/><ellipse cx="651.25" cy="210" fill="#B4A7E5" rx="11" ry="11" style="stroke: #A80036; stroke-width: 1.0;"/><path d="M647.1719,205.7656 L647.1719,203.6094 L654.5625,203.6094 L654.5625,205.7656 L652.0938,205.7656 L652.0938,213.8438 L654.5625,213.8438 L654.5625,216 L647.1719,216 L647.1719,213.8438 L649.6406,213.8438 L649.6406,205.7656 L647.1719,205.7656 Z "/><text fill="#000000" font-family="sans-serif" font-size="12" font-style="italic" lengthAdjust="spacingAndGlyphs" textLength="71" x="671.75" y="214.1543">IdentityMgr</text><line style="stroke: #A80036; stroke-width: 1.5;" x1="483" x2="899" y1="226" y2="226"/><line style="stroke: #A80036; stroke-width: 1.5;" x1="483" x2="899" y1="234" y2="234"/><ellipse cx="493" cy="245" fill="#84BE84" rx="3" ry="3" style="stroke: #038048; stroke-width: 1.0;"/><text fill="#000000" font-family="sans-serif" font-size="11" lengthAdjust="spacingAndGlyphs" textLength="293" x="502" y="248.2104">GroupAdd(name: string): (avfs.GroupReader, error)</text><ellipse cx="493" cy="257.8047" fill="#84BE84" rx="3" ry="3" style="stroke: #038048; stroke-width: 1.0;"/><text fill="#000000" font-family="sans-serif" font-size="11" lengthAdjust="spacingAndGlyphs" textLength="312" x="502" y="261.0151">LookupGroup(name: string): (avfs.GroupReader, error)</text><ellipse cx="493" cy="270.6094" fill="#84BE84" rx="3" ry="3" style="stroke: #038048; stroke-width: 1.0;"/><text fill="#000000" font-family="sans-serif" font-size="11" lengthAdjust="spacingAndGlyphs" textLength="296" x="502" y="273.8198">LookupUser(name: string): (avfs.UserReader, error)</text><ellipse cx="493" cy="283.4141" fill="#84BE84" rx="3" ry="3" style="stroke: #038048; stroke-width: 1.0;"/><text fill="#000000" font-family="sans-serif" font-size="11" lengthAdjust="spacingAndGlyphs" textLength="392" x="502" y="286.6245">UserAdd(name: string, groupName: string): (avfs.UserReader, error)</text><!--MD5=[9a471313f1d15ff94e7e8604a726d6ab]
class avfs.UserReader--><rect fill="#FEFECE" filter="url(#f1w2ylw5ud8yfx)" height="99.2188" id="avfs.UserReader" style="stroke: #A80036; stroke-width: 1.5;" width="108" x="252" y="370"/><ellipse cx="268.35" cy="386" fill="#B4A7E5" rx="11" ry="11" style="stroke: #A80036; stroke-width: 1.0;"/><path d="M264.2719,381.7656 L264.2719,379.6094 L271.6625,379.6094 L271.6625,381.7656 L269.1938,381.7656 L269.1938,389.8438 L271.6625,389.8438 L271.6625,392 L264.2719,392 L264.2719,389.8438 L266.7406,389.8438 L266.7406,381.7656 L264.2719,381.7656 Z "/><text fill="#000000" font-family="sans-serif" font-size="12" font-style="italic" lengthAdjust="spacingAndGlyphs" textLength="73" x="282.65" y="390.1543">UserReader</text><line style="stroke: #A80036; stroke-width: 1.5;" x1="253" x2="359" y1="402" y2="402"/><line style="stroke: #A80036; stroke-width: 1.5;" x1="253" x2="359" y1="410" y2="410"/><ellipse cx="263" cy="421" fill="#84BE84" rx="3" ry="3" style="stroke: #038048; stroke-width: 1.0;"/><text fill="#000000" font-family="sans-serif" font-size="11" lengthAdjust="spacingAndGlyphs" textLength="49" x="272" y="424.2104">Gid(): int</text><ellipse cx="263" cy="433.8047" fill="#84BE84" rx="3" ry="3" style="stroke: #038048; stroke-width: 1.0;"/><text fill="#000000" font-family="sans-serif" font-size="11" lengthAdjust="spacingAndGlyphs" textLength="75" x="272" y="437.0151">IsRoot(): bool</text><ellipse cx="263" cy="446.6094" fill="#84BE84" rx="3" ry="3" style="stroke: #038048; stroke-width: 1.0;"/><text fill="#000000" font-family="sans-serif" font-size="11" lengthAdjust="spacingAndGlyphs" textLength="82" x="272" y="449.8198">Name(): string</text><ellipse cx="263" cy="459.4141" fill="#84BE84" rx="3" ry="3" style="stroke: #038048; stroke-width: 1.0;"/><text fill="#000000" font-family="sans-serif" font-size="11" lengthAdjust="spacingAndGlyphs" textLength="48" x="272" y="462.6245">Uid(): int</text><!--MD5=[bb9be29a2cfc6c47a10c91a86d61ffae]
class avfs.UserConnecter--><rect fill="#FEFECE" filter="url(#f1w2ylw5ud8yfx)" height="73.6094" id="avfs.UserConnecter" style="stroke: #A80036; stroke-width: 1.5;" width="282" x="165" y="206.5"/><ellipse cx="255.25" cy="222.5" fill="#B4A7E5" rx="11" ry="11" style="stroke: #A80036; stroke-width: 1.0;"/><path d="M251.1719,218.2656 L251.1719,216.1094 L258.5625,216.1094 L258.5625,218.2656 L256.0938,218.2656 L256.0938,226.3438 L258.5625,226.3438 L258.5625,228.5 L251.1719,228.5 L251.1719,226.3438 L253.6406,226.3438 L253.6406,218.2656 L251.1719,218.2656 Z "/><text fill="#000000" font-family="sans-serif" font-size="12" font-style="italic" lengthAdjust="spacingAndGlyphs" textLength="93" x="275.75" y="226.6543">UserConnecter</text><line style="stroke: #A80036; stroke-width: 1.5;" x1="166" x2="446" y1="238.5" y2="238.5"/><line style="stroke: #A80036; stroke-width: 1.5;" x1="166" x2="446" y1="246.5" y2="246.5"/><ellipse cx="176" cy="257.5" fill="#84BE84" rx="3" ry="3" style="stroke: #038048; stroke-width: 1.0;"/><text fill="#000000" font-family="sans-serif" font-size="11" lengthAdjust="spacingAndGlyphs" textLength="181" x="185" y="260.7104">CurrentUser(): avfs.UserReader</text><ellipse cx="176" cy="270.3047" fill="#84BE84" rx="3" ry="3" style="stroke: #038048; stroke-width: 1.0;"/><text fill="#000000" font-family="sans-serif" font-size="11" lengthAdjust="spacingAndGlyphs" textLength="256" x="185" y="273.5151">User(name: string): (avfs.UserReader, error)</text><!--MD5=[f31fa51f0c48c22b176239f6ed15ce21]
class avfs.UserMgr--><rect fill="#FEFECE" filter="url(#f1w2ylw5ud8yfx)" height="73.6094" id="avfs.UserMgr" style="stroke: #A80036; stroke-width: 1.5;" width="418" x="88" y="59"/><ellipse cx="267.25" cy="75" fill="#B4A7E5" rx="11" ry="11" style="stroke: #A80036; stroke-width: 1.0;"/><path d="M263.1719,70.7656 L263.1719,68.6094 L270.5625,68.6094 L270.5625,70.7656 L268.0938,70.7656 L268.0938,78.8438 L270.5625,78.8438 L270.5625,81 L263.1719,81 L263.1719,78.8438 L265.6406,78.8438 L265.6406,70.7656 L263.1719,70.7656 Z "/><text fill="#000000" font-family="sans-serif" font-size="12" font-style="italic" lengthAdjust="spacingAndGlyphs" textLength="51" x="287.75" y="79.1543">UserMgr</text><line style="stroke: #A80036; stroke-width: 1.5;" x1="89" x2="505" y1="91" y2="91"/><line style="stroke: #A80036; stroke-width: 1.5;" x1="89" x2="505" y1="99" y2="99"/><ellipse cx="99" cy="110" fill="#84BE84" rx="3" ry="3" style="stroke: #038048; stroke-width: 1.0;"/><text fill="#000000" font-family="sans-serif" font-size="11" lengthAdjust="spacingAndGlyphs" textLength="296" x="108" y="113.2104">LookupUser(name: string): (avfs.UserReader, error)</text><ellipse cx="99" cy="122.8047" fill="#84BE84" rx="3" ry="3" style="stroke: #038048; stroke-width: 1.0;"/><text fill="#000000" font-family="sans-serif" font-size="11" lengthAdjust="spacingAndGlyphs" textLength="392" x="108" y="126.0151">UserAdd(name: string, groupName: string): (avfs.UserReader, error)</text><!--MD5=[25e418bd4f3420efc457865f036fb37d]
link avfs.VFS to avfs.File--><path d="M616,462.62 C616,486.1 616,515.57 616,540.7 " fill="none" id="avfs.VFS-&gt;avfs.File" style="stroke: #A80036; stroke-width: 1.0; stroke-dasharray: 7.0,7.0;"/><polygon fill="#A80036" points="616,546,620,537,616,541,612,537,616,546" style="stroke: #A80036; stroke-width: 1.0;"/><text fill="#000000" font-family="sans-serif" font-size="13" lengthAdjust="spacingAndGlyphs" textLength="55" x="617" y="512.0669">«return»</text><!--MD5=[98fff7fd306ce39005bd6d6fd7c89b9d]
link avfs.GroupMgr to avfs.GroupReader--><path d="M864.37,133.11 C884.6,149.26 905.56,170.06 918,194 C948.3,252.28 950.09,330.33 947.7,377.38 " fill="none" id="avfs.GroupMgr-&gt;avfs.GroupReader" style="stroke: #A80036; stroke-width: 1.0; stroke-dasharray: 7.0,7.0;"/><polygon fill="#A80036" points="947.42,382.4,951.902,373.6301,947.691,377.4074,943.9137,373.1964,947.42,382.4" style="stroke: #A80036; stroke-width: 1.0;"/><text fill="#000000" font-family="sans-serif" font-size="13" lengthAdjust="spacingAndGlyphs" textLength="55" x="946" y="248.0669">«return»</text><!--MD5=[57abee87451cf2ad52d9781b68569738]
link avfs.IdentityMgr to avfs.GroupReader--><path d="M761.81,293.2 C801.28,320.35 849.8,353.71 886.83,379.18 " fill="none" id="avfs.IdentityMgr-&gt;avfs.GroupReader" style="stroke: #A80036; stroke-width: 1.0; stroke-dasharray: 7.0,7.0;"/><polygon fill="#A80036" points="891.29,382.25,886.1262,373.8634,887.1652,379.424,881.6046,380.4631,891.29,382.25" style="stroke: #A80036; stroke-width: 1.0;"/><text fill="#000000" font-family="sans-serif" font-size="13" lengthAdjust="spacingAndGlyphs" textLength="55" x="826" y="336.0669">«return»</text><!--MD5=[73b91e8f0ed7c46b818bca8116da1203]
link avfs.IdentityMgr to avfs.UserReader--><path d="M563.3,293.12 C508.84,314.99 445.05,342.14 389,370 C381.06,373.95 372.83,378.35 364.79,382.84 " fill="none" id="avfs.IdentityMgr-&gt;avfs.UserReader" style="stroke: #A80036; stroke-width: 1.0; stroke-dasharray: 7.0,7.0;"/><polygon fill="#A80036" points="360.34,385.35,370.1442,384.4133,364.6952,382.8939,366.2145,377.4449,360.34,385.35" style="stroke: #A80036; stroke-width: 1.0;"/><text fill="#000000" font-family="sans-serif" font-size="13" lengthAdjust="spacingAndGlyphs" textLength="55" x="487" y="336.0669">«return»</text><!--MD5=[cdf837bf845b494068d23f5b958947ee]
link avfs.UserConnecter to avfs.UserReader--><path d="M306,280.55 C306,304.92 306,337.51 306,364.9 " fill="none" id="avfs.UserConnecter-&gt;avfs.UserReader" style="stroke: #A80036; stroke-width: 1.0; stroke-dasharray: 7.0,7.0;"/><polygon fill="#A80036" points="306,369.95,310,360.95,306,364.95,302,360.95,306,369.95" style="stroke: #A80036; stroke-width: 1.0;"/><text fill="#000000" font-family="sans-serif" font-size="13" lengthAdjust="spacingAndGlyphs" textLength="55" x="307" y="336.0669">«return»</text><!--MD5=[f29ccdc191ca282b897de8b825ec1525]
link avfs.UserMgr to avfs.UserReader--><path d="M163.87,133.11 C135.08,147.32 108.15,166.96 91,194 C67.43,231.15 69.09,254.84 91,293 C124.15,350.73 195.24,384.43 246.62,402.11 " fill="none" id="avfs.UserMgr-&gt;avfs.UserReader" style="stroke: #A80036; stroke-width: 1.0; stroke-dasharray: 7.0,7.0;"/><polygon fill="#A80036" points="251.53,403.77,244.2869,397.0964,246.7938,402.1674,241.7227,404.6743,251.53,403.77" style="stroke: #A80036; stroke-width: 1.0;"/><text fill="#000000" font-family="sans-serif" font-size="13" lengthAdjust="spacingAndGlyphs" textLength="55" x="92" y="248.0669">«return»</text><!--MD5=[4e7f69f9000ffcc9b5d3a0d53fef4e44]
reverse link avfs.IdentityMgr to avfs.VFS--><path d="M661.94,311.93 C652.58,333.64 642.48,357.08 634.14,376.42 " fill="none" id="avfs.IdentityMgr&lt;-avfs.VFS" style="stroke: #A80036; stroke-width: 1.0;"/><polygon fill="none" points="655.56,309.03,669.91,293.43,668.42,314.57,655.56,309.03" style="stroke: #A80036; stroke-width: 1.0;"/><!--MD5=[ba537a35e643687b66bdad9a6e69ed2d]
reverse link avfs.UserConnecter to avfs.VFS--><path d="M387.79,290.41 C435.27,317.06 494.65,350.39 540.93,376.37 " fill="none" id="avfs.UserConnecter&lt;-avfs.VFS" style="stroke: #A80036; stroke-width: 1.0;"/><polygon fill="none" points="384.25,296.45,370.23,280.55,391.1,284.24,384.25,296.45" style="stroke: #A80036; stroke-width: 1.0;"/><!--MD5=[9f8698169d9990d8559b0f6aaddeca7d]
reverse link avfs.GroupMgr to avfs.IdentityMgr--><path d="M766.74,149.11 C754.95,163.65 742.18,179.39 730.55,193.74 " fill="none" id="avfs.GroupMgr&lt;-avfs.IdentityMgr" style="stroke: #A80036; stroke-width: 1.0;"/><polygon fill="none" points="761.49,144.46,779.53,133.34,772.37,153.28,761.49,144.46" style="stroke: #A80036; stroke-width: 1.0;"/><!--MD5=[799b9b7901b58047237e245916bfd7c2]
reverse link avfs.UserMgr to avfs.IdentityMgr--><path d="M413.51,140.03 C459.41,156.98 512.34,176.52 559.59,193.97 " fill="none" id="avfs.UserMgr&lt;-avfs.IdentityMgr" style="stroke: #A80036; stroke-width: 1.0;"/><polygon fill="none" points="410.98,146.55,394.65,133.06,415.83,133.42,410.98,146.55" style="stroke: #A80036; stroke-width: 1.0;"/><!--MD5=[ca0491210d28fd081d7222c1c000733f]
@startuml

package "avfs" {
	interface "File" as avfs.File {
        +Read(p: []byte): (n: int, err: error)
        +Seek(offset: int64, whence: int): (int64, error)
        +Stat(): (os.FileInfo, error)
        +Write(p: []byte): (n: int, err: error)
	}
}

package "avfs" {
	interface "VFS" as avfs.VFS {
		+Create(name: string): (avfs.File, error)
        +Open(name: string): (avfs.File, error)
        +OpenFile(name: string, flag: int, perm: os.FileMode): (avfs.File, error)
	}
}

	avfs.VFS ..> avfs.File : <<return>>

package "avfs" {
	interface "GroupMgr" as avfs.GroupMgr {
		+GroupAdd(name: string): (avfs.GroupReader, error)
		+LookupGroup(name: string): (avfs.GroupReader, error)
	}
}

	avfs.GroupMgr ..> avfs.GroupReader : <<return>>

package "avfs" {
	interface "GroupReader" as avfs.GroupReader {
		+Gid(): int
		+Name(): string
	}
}

package "avfs" {
	interface "IdentityMgr" as avfs.IdentityMgr {
		+GroupAdd(name: string): (avfs.GroupReader, error)
		+LookupGroup(name: string): (avfs.GroupReader, error)
		+LookupUser(name: string): (avfs.UserReader, error)
		+UserAdd(name: string, groupName: string): (avfs.UserReader, error)
	}
}

	avfs.IdentityMgr ..> avfs.GroupReader : <<return>>
	avfs.IdentityMgr ..> avfs.UserReader : <<return>>

package "avfs" {
	interface "UserConnecter" as avfs.UserConnecter {
		+CurrentUser(): avfs.UserReader
		+User(name: string): (avfs.UserReader, error)
	}
}


	avfs.UserConnecter ..> avfs.UserReader : <<return>>

package "avfs" {
	interface "UserMgr" as avfs.UserMgr {
		+LookupUser(name: string): (avfs.UserReader, error)
		+UserAdd(name: string, groupName: string): (avfs.UserReader, error)
	}
}

	avfs.UserMgr ..> avfs.UserReader : <<return>>

package "avfs" {
	interface "UserReader" as avfs.UserReader {
		+Gid(): int
		+IsRoot(): bool
		+Name(): string
		+Uid(): int
	}
}

	avfs.VFS -up-|> avfs.IdentityMgr
	avfs.VFS -up-|> avfs.UserConnecter
	avfs.IdentityMgr -up-|> avfs.GroupMgr
	avfs.IdentityMgr -up-|> avfs.UserMgr

@enduml
--></g></svg>
